<?xml version="1.0" encoding="utf-8"?>
<!-- Generator: Adobe Illustrator 19.2.0, SVG Export Plug-In . SVG Version: 6.00 Build 0)  -->
<svg version="1.1" id="Layer_1" xmlns="http://www.w3.org/2000/svg" xmlns:xlink="http://www.w3.org/1999/xlink" x="0px" y="0px"
	 viewBox="0 0 24 24" style="enable-background:new 0 0 24 24;" xml:space="preserve">
<style type="text/css">
	.st0{fill:none;}
</style>
<g id="Filled_Icons_1_">
	<g id="Filled_Icons">
		<g>
			<path d="M19.5,1c-1.8,0-3.3,1-4.1,2.6c2.9,0.9,5.2,3,6.5,5.7C23.2,8.5,24,7.1,24,5.5C24,3,22,1,19.5,1z"/>
			<path d="M9,3.4C8.2,2,6.7,1,5,1C2.5,1,0.5,3,0.5,5.5c0,1.4,0.7,2.7,1.7,3.5C3.6,6.3,6,4.3,9,3.4z"/>
			<path d="M12,4C6.5,4,2,8.5,2,14s4.5,10,10,10s10-4.5,10-10S17.5,4,12,4z M13,14.5c0,0.3-0.2,0.5-0.5,0.5h-4C8.2,15,8,14.8,8,14.5
				S8.2,14,8.5,14H12V8.5C12,8.2,12.2,8,12.5,8S13,8.2,13,8.5V14.5z"/>
			<path d="M18.8,22.6c-0.3,0.2-0.5,0.4-0.8,0.6l0.6,0.6c0.2,0.2,0.5,0.2,0.7,0c0.2-0.2,0.2-0.5,0-0.7L18.8,22.6z"/>
			<path d="M5.2,22.6l-0.5,0.5c-0.2,0.2-0.2,0.5,0,0.7c0.2,0.2,0.5,0.2,0.7,0L6,23.2C5.7,23,5.4,22.8,5.2,22.6z"/>
		</g>
	</g>
	<g id="New_icons">
	</g>
</g>
<g id="Invisible_Shape">
	<rect class="st0" width="24" height="24"/>
</g>
</svg>
