<?xml version="1.0" encoding="UTF-8"?>
<svg viewBox="0 0 17 16" version="1.1" xmlns="http://www.w3.org/2000/svg" xmlns:xlink="http://www.w3.org/1999/xlink">
    <!-- Generator: Sketch 42 (36781) - http://www.bohemiancoding.com/sketch -->
    <title>Download</title>
    <desc>Created with Sketch.</desc>
    <defs></defs>
    <g id="Page-1" stroke="none" stroke-width="1" fill="none" fill-rule="evenodd">
        <g id="Logo" transform="translate(-1329.000000, -302.000000)" fill="#06f">
            <g id="Group" transform="translate(1220.000000, 287.000000)">
                <g id="Download" transform="translate(109.000000, 15.000000)">
                    <path d="M4.57273683,7.35936 C4.21393957,7.35936 4.13163101,7.56352681 4.37866273,7.80536182 L8.04441419,11.3939982 C8.29602729,11.6403182 8.70917975,11.6364456 8.95695257,11.395336 L12.6337013,7.817464 C12.8860692,7.57188285 12.8083599,7.37123047 12.4493649,7.36923449 L10.7884615,7.36 L10.7884615,0.9696875 C10.7884615,0.610875002 10.5021545,0.32 10.15206,0.32 L6.84794,0.32 C6.49646514,0.32 6.21153846,0.604669782 6.21153846,0.969628437 L6.21153846,7.35936 L4.57273683,7.35936 Z" id="Stroke-1"></path>
                    <path d="M1.63461538,14.4 L1.63461538,11.84 C1.63461538,11.4865378 1.34187849,11.2 0.980769231,11.2 C0.619659971,11.2 0.326923077,11.4865378 0.326923077,11.84 L0.326923077,15.04 C0.326923077,15.3934622 0.619659971,15.68 0.980769231,15.68 L16.0192308,15.68 C16.38034,15.68 16.6730769,15.3934622 16.6730769,15.04 L16.6730769,11.84 C16.6730769,11.4865378 16.38034,11.2 16.0192308,11.2 C15.6581215,11.2 15.3653846,11.4865378 15.3653846,11.84 L15.3653846,14.4 L1.63461538,14.4 Z" id="Stroke-3" fill-rule="nonzero"></path>
                </g>
            </g>
        </g>
    </g>
</svg>
