<?xml version="1.0" encoding="utf-8"?>
<!-- Generator: Adobe Illustrator 19.2.0, SVG Export Plug-In . SVG Version: 6.00 Build 0)  -->
<svg version="1.1" id="Layer_1" xmlns="http://www.w3.org/2000/svg" xmlns:xlink="http://www.w3.org/1999/xlink" x="0px" y="0px"
	 viewBox="0 0 24 24" style="enable-background:new 0 0 24 24;" xml:space="preserve">
<style type="text/css">
	.st0{fill:none;}
</style>
<g id="Filled_Icons_1_">
	<path d="M12,0C7.6,0,4,3.6,4,8c0,4.2,7.3,15.3,7.6,15.8c0.1,0.1,0.2,0.2,0.4,0.2s0.3-0.1,0.4-0.2C12.7,23.3,20,12.2,20,8
		C20,3.6,16.4,0,12,0z M12,11.5c-1.9,0-3.5-1.6-3.5-3.5s1.6-3.5,3.5-3.5s3.5,1.6,3.5,3.5S13.9,11.5,12,11.5z"/>
</g>
<g id="invisible_shape">
	<rect class="st0" width="24" height="24"/>
</g>
</svg>
