<?xml version="1.0" encoding="utf-8"?>
<!-- Generator: Adobe Illustrator 19.2.0, SVG Export Plug-In . SVG Version: 6.00 Build 0)  -->
<svg version="1.1" id="Layer_1" xmlns="http://www.w3.org/2000/svg" xmlns:xlink="http://www.w3.org/1999/xlink" x="0px" y="0px"
	 viewBox="0 0 1134.4 174.7" style="enable-background:new 0 0 1134.4 174.7;" xml:space="preserve">
<style type="text/css">
	.st0{fill:#3D3D3D;}
	.st1{font-family:'Volte-Semibold';}
	.st2{font-size:140px;}
</style>
<g>
	<g>
		<g>
			<polygon class="st0" points="88.6,173.5 139,173.5 58.6,1.1 33.5,55.1 			"/>
			<polygon class="st0" points="173,173.5 223.3,173.5 142.9,1.1 117.8,55.1 			"/>
			<path class="st0" d="M21.6,132.1C9.7,132.1,0,141.6,0,153.4c0,11.7,9.7,21.3,21.6,21.3s21.6-9.5,21.6-21.3S33.5,132.1,21.6,132.1
				z"/>
		</g>
		<g>
			<polygon class="st0" points="261.2,1.1 341.6,173.5 366.7,119.5 311.6,1.1 			"/>
			<polygon class="st0" points="176.9,1.1 257.3,173.5 282.4,119.5 227.2,1.1 			"/>
			<path class="st0" d="M378.6,0C366.7,0,357,9.5,357,21.3c0,11.7,9.7,21.3,21.6,21.3s21.6-9.5,21.6-21.3C400.3,9.5,390.6,0,378.6,0
				z"/>
		</g>
	</g>
</g>
<text transform="matrix(1 0 0 1 454.2224 132.1)" class="st0 st1 st2">Show &amp; Do</text>
</svg>
