<?xml version="1.0" encoding="utf-8"?>
<!-- Generator: Adobe Illustrator 20.0.0, SVG Export Plug-In . SVG Version: 6.00 Build 0)  -->
<!DOCTYPE svg PUBLIC "-//W3C//DTD SVG 1.1//EN" "http://www.w3.org/Graphics/SVG/1.1/DTD/svg11.dtd">
<svg version="1.1" id="Layer_1" xmlns="http://www.w3.org/2000/svg" xmlns:xlink="http://www.w3.org/1999/xlink" x="0px" y="0px"
	 viewBox="0 0 406 180" style="enable-background:new 0 0 406 180;" xml:space="preserve">
<style type="text/css">
	.st0{fill:#3d3d3d;}
	.st1{fill:#3d3d3d;}
	.st2{fill:#3d3d3d;}
</style>
<g>
	<g>
		<g>
			<polygon class="st0" points="91.5,176.2 141.9,176.2 61.5,3.8 36.4,57.8 			"/>
			<polygon class="st0" points="175.9,176.2 226.2,176.2 145.8,3.8 120.7,57.8 			"/>
			<path class="st1" d="M24.5,134.8c-11.9,0-21.6,9.5-21.6,21.3c0,11.7,9.7,21.3,21.6,21.3c11.9,0,21.6-9.5,21.6-21.3
				C46.1,144.3,36.4,134.8,24.5,134.8z"/>
		</g>
		<g>
			<polygon class="st2" points="264.1,3.8 344.5,176.2 369.6,122.2 314.5,3.8 			"/>
			<polygon class="st2" points="179.8,3.8 260.2,176.2 285.3,122.2 230.1,3.8 			"/>
			<path class="st1" d="M381.5,2.7c-11.9,0-21.6,9.5-21.6,21.3c0,11.7,9.7,21.3,21.6,21.3c11.9,0,21.6-9.5,21.6-21.3
				C403.2,12.2,393.5,2.7,381.5,2.7z"/>
		</g>
	</g>
</g>
</svg>
