<?xml version="1.0" encoding="utf-8"?>
<!-- Generator: Adobe Illustrator 19.2.0, SVG Export Plug-In . SVG Version: 6.00 Build 0)  -->
<svg version="1.1" id="Layer_1" xmlns="http://www.w3.org/2000/svg" xmlns:xlink="http://www.w3.org/1999/xlink" x="0px" y="0px"
	 viewBox="0 0 24 24" style="enable-background:new 0 0 24 24;" xml:space="preserve">
<style type="text/css">
	.st0{fill:none;}
</style>
<g id="Filled_Icons">
	<g>
		<path d="M13.5,19.3l3.2,3.2c4.4-4.4,3.5-3.5,4.8-4.8l-3.2-3.2L13.5,19.3z"/>
		<path d="M12.3,19.1l7.7-7.7V0.5C20,0.2,19.8,0,19.5,0H17v4h-2V0h-2v4h-2V0H9v4H7V0H5v4H3V0H0.5C0.2,0,0,0.2,0,0.5v20
			C0,20.8,0.2,21,0.5,21h11.2l0.5-1.7C12.1,19.3,12.2,19.2,12.3,19.1z"/>
		<path d="M12,23.4c-0.1,0.2,0,0.4,0.1,0.5c0.1,0.1,0.3,0.2,0.5,0.1l3.2-0.9l-2.9-2.9L12,23.4z"/>
		<path d="M23.9,14.6l-2.5-2.5c-0.2-0.2-0.5-0.2-0.7,0L19,13.8l3.2,3.2l1.6-1.6C24,15.2,24,14.8,23.9,14.6z"/>
	</g>
</g>
<g id="Invisible_Shape">
	<rect class="st0" width="24" height="24"/>
</g>
</svg>
