<?xml version="1.0" encoding="utf-8"?>
<!-- Generator: Adobe Illustrator 19.2.0, SVG Export Plug-In . SVG Version: 6.00 Build 0)  -->
<svg version="1.1" id="Layer_1" xmlns="http://www.w3.org/2000/svg" xmlns:xlink="http://www.w3.org/1999/xlink" x="0px" y="0px"
	 viewBox="0 0 24 24" style="enable-background:new 0 0 24 24;" xml:space="preserve">
<style type="text/css">
	.st0{fill:none;stroke:#000000;stroke-linecap:round;stroke-linejoin:round;stroke-miterlimit:10;}
	.st1{fill:none;stroke:#000000;stroke-linejoin:round;stroke-miterlimit:10;}
	.st2{fill:none;}
</style>
<g id="Outline_Icons">
	<g>
		<g>
			<polygon class="st0" points="16,22.5 12.5,23.5 13.5,20 21,12.5 23.5,15 			"/>
			<line class="st1" x1="19" y1="14.5" x2="21.5" y2="17"/>
			<line class="st0" x1="13.5" y1="20" x2="16" y2="22.5"/>
		</g>
		<g>
			<polyline class="st0" points="9.5,20.5 0.5,20.5 0.5,0.5 19.5,0.5 19.5,9.5 			"/>
			<g>
				<g>
					<path d="M4,1.5V3V1.5 M5,0.5H3V4h2V0.5L5,0.5z"/>
				</g>
			</g>
			<g>
				<g>
					<path d="M8,1.5V3V1.5 M9,0.5H7V4h2V0.5L9,0.5z"/>
				</g>
			</g>
			<g>
				<g>
					<path d="M16,1.5V3V1.5 M17,0.5h-2V4h2V0.5L17,0.5z"/>
				</g>
			</g>
			<g>
				<g>
					<path d="M12,1.5V3V1.5 M13,0.5h-2V4h2V0.5L13,0.5z"/>
				</g>
			</g>
		</g>
	</g>
</g>
<g id="Invisible_Shape">
	<rect class="st2" width="24" height="24"/>
</g>
</svg>
