<?xml version="1.0" encoding="utf-8"?>
<!-- Generator: Adobe Illustrator 19.2.0, SVG Export Plug-In . SVG Version: 6.00 Build 0)  -->
<svg version="1.1" id="Layer_1" xmlns="http://www.w3.org/2000/svg" xmlns:xlink="http://www.w3.org/1999/xlink" x="0px" y="0px"
	 viewBox="0 0 24 24" style="enable-background:new 0 0 24 24;" xml:space="preserve">
<style type="text/css">
	.st0{fill:none;}
</style>
<g id="Filled_Icons_1_">
	<g id="Filled_Icons">
		<g>
			<g>
				<polygon points="8.8,15.2 11.9,13.9 10.2,12.1 				"/>
				<path d="M13.2,14.4c0,0-0.1,0.1-0.2,0.1l0,0h0l-4.9,2.1c-0.1,0-0.1,0-0.2,0c-0.1,0-0.3-0.1-0.4-0.1c-0.1-0.1-0.2-0.4-0.1-0.6
					L9.5,11c0,0,0,0,0,0l0,0c0-0.1,0.1-0.1,0.1-0.2L18.5,2l0,0c0,0,0,0,0,0l0,0h-18C0.2,2,0,2.2,0,2.5v21C0,23.8,0.2,24,0.5,24h19
					c0.3,0,0.5-0.2,0.5-0.5V7.6L13.2,14.4z M18.5,23L18.5,23l-17,0C1.2,23,1,22.8,1,22.5l0-19C1,3.2,1.2,3,1.5,3h13
					C14.8,3,15,3.2,15,3.5C15,3.8,14.8,4,14.5,4H2l0,18l16,0l0-10.5c0-0.3,0.2-0.5,0.5-0.5s0.5,0.2,0.5,0.5l0,11
					C19,22.8,18.8,23,18.5,23z"/>
			</g>
			<polygon points="19.6,2.4 20.7,1.2 22.8,3.4 21.7,4.5 			"/>
			<polygon points="18.9,3.1 21,5.2 12.8,13.3 10.7,11.2 			"/>
		</g>
	</g>
	<g id="New_icons">
	</g>
</g>
<g id="Frames-24px">
	<rect class="st0" width="24" height="24"/>
</g>
</svg>
