<svg id="Layer_1" data-name="Layer 1" xmlns="http://www.w3.org/2000/svg" viewBox="0 0 1135.74 174.7"><defs><style>.cls-1,.cls-2{fill:#06f;}.cls-2{isolation:isolate;font-size:140px;font-family:Volte;font-weight:700;}.cls-3{letter-spacing:-3px;}</style></defs><title>logo-sd-col1</title><polygon class="cls-1" points="88.6 173.5 139 173.5 58.6 1.1 33.5 55.1 88.6 173.5"/><polygon class="cls-1" points="173 173.5 223.3 173.5 142.9 1.1 117.8 55.1 173 173.5"/><path class="cls-1" d="M21.6,132.1a21.3,21.3,0,1,0,0,42.6A21.3,21.3,0,1,0,21.6,132.1Z"/><polygon class="cls-1" points="261.2 1.1 341.6 173.5 366.7 119.5 311.6 1.1 261.2 1.1"/><polygon class="cls-1" points="176.9 1.1 257.3 173.5 282.4 119.5 227.2 1.1 176.9 1.1"/><path class="cls-1" d="M378.6,0A21.45,21.45,0,0,0,357,21.3a21.6,21.6,0,0,0,43.2,0A21.32,21.32,0,0,0,378.6,0Z"/><text class="cls-2" transform="translate(454.22 132.1)">Sh<tspan class="cls-3" x="159.6" y="0">o</tspan><tspan x="237.44" y="0">w &amp; Do</tspan></text></svg>
